<svg width="50" height="50" viewBox="0 0 50 50" fill="none" xmlns="http://www.w3.org/2000/svg">
<path d="M22.6953 12.3615V19.3256C22.6953 19.9022 22.5813 20.4732 22.36 21.0057C22.1387 21.5382 21.8143 22.0218 21.4055 22.4287C20.9968 22.8356 20.5116 23.1578 19.9779 23.3768C19.4442 23.5959 18.8725 23.7074 18.2956 23.705H11.3638C10.7885 23.7085 10.2183 23.5958 9.68755 23.3738C9.1568 23.1517 8.67637 22.8248 8.27506 22.4127C7.86844 22.0083 7.54631 21.5271 7.32743 20.9971C7.10854 20.4671 6.99726 19.8989 7.00005 19.3256V12.3795C7.00004 11.2211 7.45922 10.1098 8.27707 9.28904C9.09493 8.46825 10.2048 8.00475 11.3638 8H18.3135C18.8883 8.00055 19.4572 8.11506 19.9874 8.33688C20.5176 8.55871 20.9985 8.88345 21.4023 9.2923C21.8116 9.69191 22.1369 10.1693 22.3589 10.6964C22.581 11.2235 22.6953 11.7896 22.6953 12.3615ZM42 12.3795V19.3256C41.9907 20.4811 41.5285 21.5869 40.7127 22.4057C39.8968 23.2245 38.7923 23.691 37.6362 23.705H30.6686C29.507 23.6979 28.3935 23.2411 27.5618 22.4307C27.1555 22.0223 26.8337 21.5379 26.6149 21.005C26.3961 20.4722 26.2846 19.9015 26.2868 19.3256V12.3795C26.2844 11.8045 26.3976 11.235 26.6197 10.7047C26.8418 10.1743 27.1683 9.69402 27.5798 9.2923C27.9836 8.88345 28.4645 8.55871 28.9947 8.33688C29.5248 8.11506 30.0938 8.00055 30.6686 8H37.6183C38.7775 8.00938 39.8865 8.4738 40.7062 9.29308C41.526 10.1124 41.9906 11.2209 42 12.3795ZM42 31.6742V38.6203C41.9907 39.7758 41.5285 40.8817 40.7127 41.7004C39.8968 42.5192 38.7923 42.9857 37.6362 42.9998H30.6686C29.4997 43.0116 28.3722 42.5673 27.5259 41.7613C27.118 41.3541 26.7951 40.8699 26.5762 40.3368C26.3573 39.8037 26.2467 39.2324 26.2509 38.6562V31.7101C26.2486 31.1352 26.3618 30.5657 26.5839 30.0354C26.806 29.505 27.1325 29.0247 27.5439 28.6229C27.9477 28.2142 28.4286 27.8895 28.9588 27.6677C29.489 27.4458 30.0579 27.3313 30.6326 27.3306H37.5824C38.7416 27.34 39.8506 27.8044 40.6703 28.6237C41.49 29.443 41.9547 30.5515 41.9641 31.7101L42 31.6742ZM22.6953 31.6922V38.6383C22.6811 39.7968 22.2119 40.9034 21.3889 41.7193C20.5658 42.5353 19.4548 42.9951 18.2956 42.9998H11.3638C10.7901 43.0021 10.2216 42.891 9.69107 42.6726C9.16056 42.4543 8.67856 42.1331 8.27287 41.7276C7.86719 41.3221 7.54584 40.8404 7.32738 40.3101C7.10893 39.7799 6.99768 39.2117 7.00005 38.6383V31.6922C7.00468 30.5335 7.46479 29.4231 8.28114 28.6005C9.09749 27.7778 10.2047 27.3089 11.3638 27.2947H18.3135C19.478 27.3048 20.5925 27.7684 21.4202 28.587C22.2393 29.4129 22.6977 30.5293 22.6953 31.6922Z" fill="white"/>
</svg>
