<svg width="20" height="22" viewBox="0 0 20 22" fill="none" xmlns="http://www.w3.org/2000/svg">
<path d="M4.03836 5.55273H3.02557C2.48836 5.55273 1.97315 5.79258 1.59328 6.2195C1.21341 6.64643 1 7.22546 1 7.82922V18.0734C1 18.6772 1.21341 19.2562 1.59328 19.6831C1.97315 20.1101 2.48836 20.3499 3.02557 20.3499H12.1407C12.6779 20.3499 13.1931 20.1101 13.573 19.6831C13.9528 19.2562 14.1662 18.6772 14.1662 18.0734V16.9352" stroke="white" stroke-width="2" stroke-linecap="round" stroke-linejoin="round"/>
<path d="M13.153 3.27661L16.1913 6.69134M17.5941 5.08073C17.9929 4.63244 18.217 4.02442 18.217 3.39044C18.217 2.75645 17.9929 2.14844 17.5941 1.70014C17.1952 1.25185 16.6542 1 16.0901 1C15.526 1 14.985 1.25185 14.5861 1.70014L6.06348 11.2443V14.6591H9.10184L17.5941 5.08073Z" stroke="white" stroke-width="2" stroke-linecap="round" stroke-linejoin="round"/>
</svg>
